<?xml version="1.0" encoding="utf-8"?>
<!-- Generator: Adobe Illustrator 25.2.1, SVG Export Plug-In . SVG Version: 6.00 Build 0)  -->
<!DOCTYPE svg PUBLIC "-//W3C//DTD SVG 1.0//EN" "http://www.w3.org/TR/2001/REC-SVG-20010904/DTD/svg10.dtd" [
	<!ENTITY st0 "fill:#0061B1;">
	<!ENTITY st1 "clip-path:url(#SVGID_2_);fill:#0061B1;">
	<!ENTITY st2 "clip-path:url(#SVGID_4_);fill:#0061B1;">
	<!ENTITY st3 "clip-path:url(#SVGID_6_);fill:#0061B1;">
]>
<svg version="1.0" id="图层_1" xmlns="http://www.w3.org/2000/svg" xmlns:xlink="http://www.w3.org/1999/xlink" x="0px" y="0px"
	 viewBox="0 0 64 64" style="enable-background:new 0 0 64 64;" xml:space="preserve">
<g>
	<path style="&st0;" d="M24.5,34c-0.3,0-0.7-0.1-1-0.3c-1-0.5-1.3-1.7-0.8-2.7l0,0c0.5-1,1.8-1.3,2.7-0.7c1,0.5,1.3,1.8,0.7,2.7
		C25.9,33.6,25.2,34,24.5,34"/>
	<g>
		<defs>
			<path id="SVGID_1_" d="M13,45c0-2.2,1.8-4,4-4c0.7,0,1.4,0.2,2,0.5c0,0,0,0,0,0c0,0,0,0,0,0c1.2,0.7,2,2,2,3.4c0,2.2-1.8,4-4,4
				C14.8,49,13,47.2,13,45 M15,19c0,1.6,0.2,3.3,0.7,4.9c0,0,0,0,0,0c1.1,3.5,3.2,6.6,6.1,8.7l-2.7,4.7C18.4,37.1,17.7,37,17,37
				c-4.4,0-8,3.6-8,8c0,4.4,3.6,8,8,8s8-3.6,8-8c0-2.2-0.9-4.2-2.4-5.7l3.6-6.3c0,0,0,0,0,0c0,0,0,0,0,0c0.5-1,0.2-2.2-0.7-2.7
				c-2.9-1.7-5-4.4-6-7.5c0,0,0,0,0,0C19.2,21.5,19,20.2,19,19c0-7.2,5.8-13,13-13c7.2,0,13,5.8,13,13c0,1.3-0.2,2.5-0.6,3.7
				c-0.3,1.1,0.3,2.2,1.3,2.5c0.2,0.1,0.4,0.1,0.6,0.1c0.9,0,1.6-0.6,1.9-1.4c0.5-1.6,0.7-3.2,0.7-4.9c0-9.4-7.6-17-17-17
				S15,9.6,15,19"/>
		</defs>
		<use xlink:href="#SVGID_1_"  style="overflow:visible;fill:#0061B1;"/>
		<clipPath id="SVGID_2_">
			<use xlink:href="#SVGID_1_"  style="overflow:visible;"/>
		</clipPath>
		<rect x="9" y="2" style="&st1;" width="40" height="51"/>
	</g>
	<g>
		<defs>
			<path id="SVGID_3_" d="M30,22.4c-1.2-0.7-2-2-2-3.5c0-2.2,1.8-4,4-4c2.2,0,4,1.8,4,4c0,1.4-0.8,2.7-2,3.4c-0.6,0.4-1.3,0.5-2,0.5
				C31.3,23,30.6,22.8,30,22.4 M24,19c0,2.8,1.5,5.5,4,6.9c1.2,0.7,2.6,1.1,4,1.1c0.7,0,1.4-0.1,2.1-0.3l3.6,6.3c0,0,0,0,0,0
				c0,0,0,0,0,0c0,0,0,0,0,0c0,0,0,0,0,0c0.1,0.1,0.1,0.2,0.2,0.2c0,0.1,0.1,0.1,0.1,0.2c0.1,0.1,0.2,0.1,0.2,0.2
				c0.1,0,0.1,0.1,0.2,0.1c0.1,0.1,0.2,0.1,0.3,0.1c0.1,0,0.1,0.1,0.2,0.1c0.2,0,0.3,0.1,0.5,0.1c0.2,0,0.3,0,0.5-0.1
				c0.1,0,0.1,0,0.2-0.1c0.1,0,0.2-0.1,0.3-0.1c2-1.1,4.2-1.7,6.5-1.7c1,0,2,0.1,3,0.4c5.9,1.4,10,6.6,10,12.7c0,7.2-5.8,13-13,13
				c-3.6,0-7-1.5-9.4-4.1c-0.8-0.8-2-0.8-2.8-0.1c-0.8,0.8-0.8,2-0.1,2.8C37.9,60.1,42.3,62,47,62c9.4,0,17-7.6,17-17
				c0-7.9-5.4-14.7-13.1-16.5C49.6,28.2,48.3,28,47,28c-2.3,0-4.6,0.5-6.7,1.4l-2.7-4.7c1.5-1.5,2.4-3.5,2.4-5.7c0-4.4-3.6-8-8-8
				C27.6,11,24,14.6,24,19"/>
		</defs>
		<use xlink:href="#SVGID_3_"  style="overflow:visible;fill:#0061B1;"/>
		<clipPath id="SVGID_4_">
			<use xlink:href="#SVGID_3_"  style="overflow:visible;"/>
		</clipPath>
		<rect x="24" y="11" style="&st2;" width="40" height="51"/>
	</g>
	<g>
		<defs>
			<path id="SVGID_5_" d="M43,45c0-1.4,0.8-2.7,2-3.5c0.6-0.3,1.3-0.5,2-0.5c2.2,0,4,1.8,4,4c0,2.2-1.8,4-4,4C44.8,49,43,47.2,43,45
				 M13.1,28.5C5.4,30.3,0,37.1,0,45c0,9.4,7.6,17,17,17c4.7,0,9.1-1.9,12.3-5.3c2.5-2.7,4.1-6.1,4.5-9.7h5.4c0.9,3.4,4,6,7.7,6
				c4.4,0,8-3.6,8-8c0-4.4-3.6-8-8-8c-1.4,0-2.8,0.4-4,1.1c-1.9,1.1-3.2,2.9-3.7,4.9H32c-1.1,0-2,0.9-2,2c0,3.3-1.3,6.5-3.6,8.9
				C24,56.6,20.6,58,17,58C9.8,58,4,52.2,4,45C4,39,8.1,33.7,14,32.4c1.1-0.3,1.7-1.3,1.5-2.4c-0.2-0.9-1-1.5-1.9-1.5
				C13.4,28.4,13.2,28.4,13.1,28.5"/>
		</defs>
		<use xlink:href="#SVGID_5_"  style="overflow:visible;fill:#0061B1;"/>
		<clipPath id="SVGID_6_">
			<use xlink:href="#SVGID_5_"  style="overflow:visible;"/>
		</clipPath>
		<rect x="0" y="28.4" style="&st3;" width="55" height="33.6"/>
	</g>
</g>
<g>
</g>
<g>
</g>
<g>
</g>
<g>
</g>
<g>
</g>
<g>
</g>
</svg>
